<svg width="233" height="36" viewBox="0 0 233 36" fill="none" xmlns="http://www.w3.org/2000/svg">
<path d="M192.441 0.580078H209.707V5.48047H208.564C207.464 5.48047 206.787 5.53971 206.533 5.6582C206.127 5.8444 205.831 6.10677 205.645 6.44531C205.475 6.78385 205.391 7.41862 205.391 8.34961V17.7695L216.436 7.53711C216.926 7.08008 217.223 6.77539 217.324 6.62305C217.426 6.45378 217.477 6.3099 217.477 6.19141C217.477 5.95443 217.375 5.77669 217.172 5.6582C216.986 5.53971 216.495 5.48047 215.699 5.48047H214.277V0.580078H230.299V5.48047H229.766C229.021 5.48047 228.505 5.52279 228.217 5.60742C227.929 5.67513 227.574 5.83594 227.15 6.08984C226.744 6.34375 226.211 6.75846 225.551 7.33398L216.994 14.748L227.201 28.5352C228.081 29.7201 228.725 30.4225 229.131 30.6426C229.673 30.9473 230.451 31.0996 231.467 31.0996H232.152V36H214.277V31.0996H214.988C216.292 31.0996 217.079 31.0404 217.35 30.9219C217.637 30.8034 217.781 30.651 217.781 30.4648C217.781 30.2617 217.519 29.7793 216.994 29.0176L210.773 20.1562L205.391 24.752V28.332C205.391 29.2122 205.475 29.8216 205.645 30.1602C205.814 30.4987 206.051 30.7441 206.355 30.8965C206.677 31.0319 207.312 31.0996 208.26 31.0996H209.707V36H192.441V31.0996H193.736C194.735 31.0996 195.404 31.0234 195.742 30.8711C196.081 30.7018 196.326 30.4395 196.479 30.084C196.614 29.7962 196.682 29.1022 196.682 28.002V8.6543C196.682 7.60482 196.605 6.90234 196.453 6.54688C196.301 6.19141 196.055 5.92904 195.717 5.75977C195.378 5.57357 194.769 5.48047 193.889 5.48047H192.441V0.580078Z" fill="white"/>
<path d="M167.838 0.580078H175.785L186.424 27.9258C186.999 29.3815 187.507 30.2786 187.947 30.6172C188.404 30.9557 189.234 31.1165 190.436 31.0996V36H173.678V31.0996L174.693 31.0742C175.624 31.0742 176.276 30.9557 176.648 30.7188C177.021 30.4648 177.207 30.1602 177.207 29.8047C177.207 29.5 177.046 28.8737 176.725 27.9258L175.684 24.7012H164.893L163.572 28.2812C163.301 29.043 163.166 29.5423 163.166 29.7793C163.166 30.0501 163.259 30.2956 163.445 30.5156C163.648 30.7357 163.97 30.8965 164.41 30.998C164.698 31.0658 165.493 31.0996 166.797 31.0996V36H153.086V31.0996C153.966 31.0996 154.609 31.0234 155.016 30.8711C155.422 30.7188 155.752 30.4902 156.006 30.1855C156.277 29.8809 156.573 29.3138 156.895 28.4844L167.838 0.580078ZM166.746 19.6484H173.83L170.377 9.89844L166.746 19.6484Z" fill="white"/>
<path d="M120.789 0.580078H139.502C141.872 0.580078 143.835 0.825521 145.393 1.31641C146.967 1.79036 148.312 2.51823 149.43 3.5C150.564 4.48177 151.436 5.64974 152.045 7.00391C152.654 8.34115 152.959 9.76302 152.959 11.2695C152.959 14.2995 151.791 16.8385 149.455 18.8867C147.136 20.9349 143.928 21.959 139.832 21.959H133.789V28.5859C133.789 29.4154 133.848 29.9401 133.967 30.1602C134.119 30.4818 134.348 30.7188 134.652 30.8711C134.974 31.0234 135.507 31.0996 136.252 31.0996H138.055V36H120.789V31.0996H121.982C123.032 31.0996 123.726 31.0234 124.064 30.8711C124.403 30.7188 124.648 30.4818 124.801 30.1602C124.953 29.8216 125.029 29.1361 125.029 28.1035V8.62891C125.029 7.54557 124.962 6.83464 124.826 6.49609C124.691 6.14062 124.471 5.88672 124.166 5.73438C123.878 5.5651 123.32 5.48047 122.49 5.48047H120.789V0.580078ZM133.789 6.36914V16.4238H136.811C138.656 16.4238 140.01 16.2376 140.873 15.8652C141.736 15.4759 142.43 14.8919 142.955 14.1133C143.48 13.3177 143.742 12.3783 143.742 11.2949C143.742 9.66992 143.116 8.38346 141.863 7.43555C140.932 6.72461 139.553 6.36914 137.725 6.36914H133.789Z" fill="white"/>
<path d="M71.8359 0.580078H87.8574L94.002 22.1367L100.375 0.580078H116.676V5.48047H114.924C113.976 5.48047 113.316 5.68359 112.943 6.08984C112.588 6.47917 112.41 7.22396 112.41 8.32422V28.4336C112.41 29.3138 112.461 29.8639 112.562 30.084C112.715 30.4225 112.926 30.6595 113.197 30.7949C113.57 30.998 114.061 31.0996 114.67 31.0996H116.676V36H99.6387V31.0996H100.959C101.924 31.0996 102.576 31.0234 102.914 30.8711C103.253 30.7188 103.498 30.4902 103.65 30.1855C103.82 29.8639 103.904 29.2799 103.904 28.4336V6.64844L95.2715 36H90.3711L82.0176 7.58789V29.1191C82.0176 29.61 82.1022 29.9909 82.2715 30.2617C82.4577 30.5326 82.7116 30.7441 83.0332 30.8965C83.3717 31.0319 83.9049 31.0996 84.6328 31.0996H86.334V36H71.8359V31.0996H73.2578C74.1549 31.0996 74.7643 31.0234 75.0859 30.8711C75.4245 30.7018 75.6699 30.4479 75.8223 30.1094C75.9915 29.7539 76.0762 29.1107 76.0762 28.1797V8.32422C76.0762 7.41016 76.0169 6.81771 75.8984 6.54688C75.7461 6.17448 75.5176 5.90365 75.2129 5.73438C74.9082 5.5651 74.4258 5.48047 73.7656 5.48047H71.8359V0.580078Z" fill="white"/>
<path d="M34.3086 0.580078H63.8633L67.9004 11.7773L63.3047 13.4277C62.526 11.5996 61.612 10.127 60.5625 9.00977C59.5299 7.89258 58.3789 7.15625 57.1094 6.80078C55.8568 6.42839 54.3926 6.24219 52.7168 6.24219H47.3086V15.0781H49.0859C50.4232 15.0781 51.3203 14.985 51.7773 14.7988C52.2513 14.5957 52.5898 14.291 52.793 13.8848C52.9961 13.4616 53.0977 12.6322 53.0977 11.3965V10.0508H57.6172V25.0312H53.0977V23.5078C53.0977 22.4753 52.9707 21.722 52.7168 21.248C52.4798 20.7741 52.1497 20.4525 51.7266 20.2832C51.3034 20.1139 50.3639 20.0293 48.9082 20.0293H47.3086V28.1543C47.3086 29.0176 47.3509 29.5423 47.4355 29.7285C47.5202 29.9147 47.681 30.0586 47.918 30.1602C48.1719 30.2617 48.7051 30.3125 49.5176 30.3125H52.4883C54.7057 30.3125 56.5762 29.9993 58.0996 29.373C59.623 28.7298 60.9772 27.7057 62.1621 26.3008C63.3639 24.8789 64.2865 23.1947 64.9297 21.248L69.5762 22.8477L64.9297 36H34.3086V31.0996H35.1973C36.3822 31.0996 37.1777 31.015 37.584 30.8457C37.9902 30.6764 38.278 30.3802 38.4473 29.957C38.5319 29.7031 38.5742 28.9837 38.5742 27.7988V8.50195C38.5742 7.45247 38.498 6.76693 38.3457 6.44531C38.2103 6.1237 37.9902 5.88672 37.6855 5.73438C37.3809 5.5651 36.7799 5.48047 35.8828 5.48047H34.3086V0.580078Z" fill="white"/>
<path d="M0.0820312 0.580078H18.7949C21.1647 0.580078 23.1283 0.825521 24.6855 1.31641C26.2598 1.79036 27.6055 2.51823 28.7227 3.5C29.8568 4.48177 30.7285 5.64974 31.3379 7.00391C31.9473 8.34115 32.252 9.76302 32.252 11.2695C32.252 14.2995 31.084 16.8385 28.748 18.8867C26.429 20.9349 23.2214 21.959 19.125 21.959H13.082V28.5859C13.082 29.4154 13.1413 29.9401 13.2598 30.1602C13.4121 30.4818 13.6406 30.7188 13.9453 30.8711C14.2669 31.0234 14.8001 31.0996 15.5449 31.0996H17.3477V36H0.0820312V31.0996H1.27539C2.32487 31.0996 3.01888 31.0234 3.35742 30.8711C3.69596 30.7188 3.94141 30.4818 4.09375 30.1602C4.24609 29.8216 4.32227 29.1361 4.32227 28.1035V8.62891C4.32227 7.54557 4.25456 6.83464 4.11914 6.49609C3.98372 6.14062 3.76367 5.88672 3.45898 5.73438C3.17122 5.5651 2.61263 5.48047 1.7832 5.48047H0.0820312V0.580078ZM13.082 6.36914V16.4238H16.1035C17.9486 16.4238 19.3027 16.2376 20.166 15.8652C21.0293 15.4759 21.7233 14.8919 22.248 14.1133C22.7728 13.3177 23.0352 12.3783 23.0352 11.2949C23.0352 9.66992 22.4089 8.38346 21.1562 7.43555C20.2253 6.72461 18.8457 6.36914 17.0176 6.36914H13.082Z" fill="white"/>
</svg>
