<svg width="188" height="34" viewBox="0 0 188 34" fill="none" xmlns="http://www.w3.org/2000/svg">
<path d="M18.2256 33.625C21.9035 33.625 25.338 31.7869 27.3782 28.7267L37.2793 13.875L30.0682 13.875L22.3859 25.3985C21.4585 26.7895 19.8974 27.625 18.2256 27.625L4 27.625L0 33.625L18.2256 33.625Z" fill="white"/>
<path d="M27.0537 0.375006C23.3758 0.375005 19.9413 2.21312 17.9011 5.2733L8 20.125L15.2111 20.125L22.8934 8.6015C23.8208 7.21051 25.3819 6.37501 27.0537 6.37501L41.2793 6.37501L45.2793 0.375006L27.0537 0.375006Z" fill="white"/>
<path d="M73.1193 21.436H67.9673V29.5H63.8713V6.108H73.1193C77.8233 6.108 80.8633 9.18 80.8633 13.756C80.8633 18.268 77.7913 21.436 73.1193 21.436ZM72.3193 9.756H67.9673V17.788H72.2553C75.0713 17.788 76.5753 16.284 76.5753 13.724C76.5753 11.164 75.0393 9.756 72.3193 9.756ZM97.8368 29.5H83.3088V6.108H97.8368V9.884H87.4048V15.9H96.7488V19.516H87.4048V25.724H97.8368V29.5ZM105.246 29.5H101.278V6.108H105.246L112.798 24.732L120.35 6.108H124.382V29.5H120.414V22.3C120.414 17.596 120.414 16.22 120.638 14.556L114.686 29.5H110.91L104.99 14.588C105.214 15.996 105.246 18.204 105.246 21.116V29.5ZM137.807 21.436H132.655V29.5H128.559V6.108H137.807C142.511 6.108 145.551 9.18 145.551 13.756C145.551 18.268 142.479 21.436 137.807 21.436ZM137.007 9.756H132.655V17.788H136.943C139.759 17.788 141.263 16.284 141.263 13.724C141.263 11.164 139.727 9.756 137.007 9.756ZM148.762 29.5H144.506L152.954 6.108H157.146L165.594 29.5H161.274L159.386 24.092H150.65L148.762 29.5ZM154.522 13.084L151.866 20.636H158.202L155.514 13.084C155.322 12.476 155.098 11.772 155.034 11.292C154.938 11.74 154.746 12.444 154.522 13.084ZM171.624 6.108V18.396L181.096 6.108H185.928L178.184 16.092L186.024 29.5H181.288L175.496 19.548L171.624 24.508V29.5H167.528V6.108H171.624Z" fill="white"/>
</svg>
